<svg xmlns="http://www.w3.org/2000/svg" xmlns:xlink="http://www.w3.org/1999/xlink" x="0px" y="0px"
	 viewBox="0 0 18 18" style="enable-background:new 0 0 18 18;" xml:space="preserve">
<path class="st0" d="M13.3,0H4.7C2.1,0,0,2.1,0,4.7v8.6C0,15.9,2.1,18,4.7,18h8.6c2.6,0,4.7-2.1,4.7-4.7V4.7C18,2.1,15.9,0,13.3,0z
	 M16.8,13.3c0,1.9-1.6,3.5-3.5,3.5H4.7c-1.9,0-3.5-1.6-3.5-3.5V4.7c0-1.9,1.6-3.5,3.5-3.5h8.6v0c1.9,0,3.5,1.6,3.5,3.5V13.3z M9,4.4
	C6.4,4.4,4.4,6.4,4.4,9s2.1,4.6,4.6,4.6c2.6,0,4.6-2.1,4.6-4.6S11.6,4.4,9,4.4z M9,12.5c-1.9,0-3.5-1.6-3.5-3.5
	c0-1.9,1.6-3.5,3.5-3.5c1.9,0,3.5,1.6,3.5,3.5C12.5,10.9,10.9,12.5,9,12.5z M13.8,3.2c-0.6,0-1.1,0.5-1.1,1s0.5,1,1.1,1
	s1.1-0.5,1.1-1S14.4,3.2,13.8,3.2z"/>
</svg>
