<svg  xmlns="http://www.w3.org/2000/svg" xmlns:xlink="http://www.w3.org/1999/xlink" x="0px" y="0px"
	 viewBox="0 0 18 14" style="enable-background:new 0 0 18 14;" xml:space="preserve">
<path class="st0" d="M15.7,3.8l-3.8,3.3c-1.2,1-2.2,1.8-2.2,1.8C9.6,9,9.5,9,9.4,9H9.3C9.2,9.1,9.1,9.1,9,9.1S8.8,9.1,8.7,9H8.6
	C8.5,9,8.4,9,8.3,8.9c0,0-1-0.8-2.2-1.8L2.2,3.8C1,2.8,0,3.3,0,4.8v6.3C0,12.7,1.3,14,2.8,14h12.3c1.6,0,2.8-1.3,2.8-2.8V4.8
	C17.9,3.2,16.9,2.8,15.7,3.8z M3.1,1.8l3.7,3.1c1.2,1,3.2,1,4.4,0l3.7-3.1c1.2-1,0.9-1.8-0.7-1.8H3.7C2.2,0,1.9,0.8,3.1,1.8z"/>
</svg>
