<svg xmlns="http://www.w3.org/2000/svg" xmlns:xlink="http://www.w3.org/1999/xlink" x="0px" y="0px"
	 viewBox="0 0 18 18" style="enable-background:new 0 0 18 18;" xml:space="preserve">
<path class="st0" d="M13.5,9.1h1.2c0-3.1-2.5-5.7-5.5-5.7v1.2C11.5,4.6,13.5,6.6,13.5,9.1z M10.1,9.1h1.1c0-1.2-1-2.2-2.2-2.2V8
	C9.7,8,10.1,8.5,10.1,9.1z M12.9,13.2c-0.3-0.1-0.6-0.3-1-0.4c-0.3-0.1-0.7-0.3-1-0.3c-0.8,0-1.4,1.1-2,1.4
	c-2.5-1.4-4.3-3.4-5.4-6.2c0.3-0.6,1.5-1,1.6-1.9c0.1-0.6-0.2-1.4-0.4-2C4.7,3.3,4.5,2.5,4.2,2.1C3.9,1.7,3.1,1.3,2.6,1.3
	C2,1.4,1.2,2,0.8,2.5C0.4,2.9,0.1,3.4,0,4c0,0.3,0,0.7,0,1c0.3,3.7,1.8,6.5,3.7,8.7c1.9,2.2,4.5,3.8,8.1,4.3c0.3,0,0.5,0,0.8,0
	c0.9-0.3,2.4-1.4,2.5-2.3c0.1-0.5-0.1-1.2-0.4-1.7C14.3,13.6,13.4,13.4,12.9,13.2z M9.1,0v1.1c4.3,0,7.8,3.6,7.8,8H18
	C18,4.1,14,0,9.1,0z"/>
</svg>
